<svg version="1.1" id="Layer_1" xmlns="http://www.w3.org/2000/svg" xmlns:xlink="http://www.w3.org/1999/xlink" x="0px" y="0px"
	 width="100%" viewBox="0 0 500 500" enable-background="new 0 0 500 500" xml:space="preserve">
<path fill="#FFFCF7" opacity="1.000000" stroke="none" 
	d="
M285.000000,501.000000 
	C190.000015,501.000000 95.500046,501.000000 1.000051,501.000000 
	C1.000034,334.333405 1.000034,167.666794 1.000017,1.000140 
	C167.666565,1.000093 334.333130,1.000093 500.999756,1.000047 
	C500.999847,167.666519 500.999847,334.333038 500.999939,500.999786 
	C429.166656,501.000000 357.333344,501.000000 285.000000,501.000000 
M228.436096,106.054176 
	C226.959167,106.428223 225.482224,106.802269 223.217316,107.344513 
	C203.359344,111.538795 185.157028,119.355347 168.517853,132.259872 
	C166.429794,133.894882 164.277863,135.455170 162.263809,137.176743 
	C146.287659,150.832794 133.344254,166.794296 124.579247,186.720047 
	C112.696556,212.164719 109.072563,238.890442 113.935516,266.392822 
	C115.958130,277.831726 120.578957,288.811218 124.134857,300.808167 
	C124.364296,301.297058 124.593742,301.785980 124.700394,302.440033 
	C124.700394,302.440033 125.034615,302.637543 125.156731,303.382416 
	C131.550797,317.572327 140.429352,330.088409 151.087875,341.342499 
	C161.293427,352.118347 173.225449,360.715820 186.408493,368.652710 
	C188.222183,369.107605 190.035858,369.562531 192.054123,370.685547 
	C195.477402,372.313385 198.806564,374.189240 202.338898,375.529724 
	C230.032379,386.039124 258.351807,387.742432 286.986633,380.364258 
	C307.310089,375.127563 325.923218,366.185089 342.297607,351.630066 
	C352.814026,343.302338 361.486176,333.293854 368.797089,322.112823 
	C381.165802,303.196808 389.091156,282.658691 391.081848,259.148163 
	C391.044159,249.104736 391.006470,239.061325 391.041199,228.142670 
	C390.884918,226.490158 390.823578,224.822250 390.558411,223.187393 
	C384.817963,187.795090 368.357880,158.462280 340.554443,135.746994 
	C321.384094,120.084908 299.488617,110.200050 274.502594,105.553589 
	C272.236725,105.434959 269.970886,105.316330 267.141449,105.253784 
	C266.767853,105.205353 266.394257,105.156929 265.449493,104.478653 
	C258.666077,104.315903 251.882523,104.043655 245.099258,104.049866 
	C242.729416,104.052032 240.360229,104.740463 237.334381,105.214394 
	C236.671768,105.227798 236.009171,105.241211 234.513046,105.098366 
	C233.004837,105.432037 231.496628,105.765717 229.632904,106.206963 
	C229.632904,106.206963 229.262405,106.180420 228.436096,106.054176 
z"/>
<path fill="#F8F4EE" opacity="1.000000" stroke="none" 
	d="
M191.849533,370.017456 
	C190.035858,369.562531 188.222183,369.107605 186.477814,368.359680 
	C187.158386,367.864532 187.769638,367.662476 188.858627,367.302460 
	C186.798203,365.965118 185.032654,364.946228 183.404770,363.741272 
	C175.015839,357.531921 166.255127,351.745087 158.385117,344.931824 
	C144.109711,332.573273 133.991516,316.996552 125.937042,299.636627 
	C118.616058,281.523590 114.712692,263.191223 114.728027,243.881287 
	C114.743240,224.722839 119.177895,206.664108 126.244202,188.748688 
	C128.246643,184.916977 129.906586,181.281097 131.812881,177.779343 
	C141.525131,159.938568 155.204224,145.561264 171.375641,132.993851 
	C183.284103,124.728806 195.618515,117.855392 209.247131,113.981033 
	C219.691360,111.011925 230.504410,109.340111 241.611908,107.120911 
	C253.346619,107.760597 264.875580,107.069313 275.856018,109.202202 
	C328.135620,119.357201 363.843964,149.803268 382.141174,199.786682 
	C386.254303,211.022736 387.395569,223.346649 389.882874,235.623184 
	C389.859894,242.305344 389.858948,248.534073 389.667603,255.132416 
	C387.767456,277.205322 381.175659,297.334015 369.953094,315.963562 
	C361.918732,329.300690 351.583038,340.669189 339.653839,351.071167 
	C331.264130,356.457703 323.594604,362.523651 315.036530,366.819580 
	C277.062195,385.881805 238.189682,387.124725 198.723541,371.393372 
	C196.588623,370.542358 194.147903,370.458466 191.849533,370.017456 
M336.031677,142.454086 
	C318.048523,127.937157 297.841614,118.088524 274.906464,114.743805 
	C266.315338,113.490936 257.465027,113.864403 248.730545,113.796432 
	C242.481064,113.747795 236.103073,113.478851 229.994980,114.536118 
	C153.084229,127.848869 104.679008,203.342712 124.519913,278.740326 
	C140.596527,339.833191 199.305832,381.194214 262.520172,376.116669 
	C293.946228,373.592468 321.004425,361.435242 343.732971,339.710724 
	C400.451172,285.498108 397.037048,192.891266 336.031677,142.454086 
z"/>
<path fill="#76A6C1" opacity="1.000000" stroke="none" 
	d="
M389.904968,235.169754 
	C387.395569,223.346649 386.254303,211.022736 382.141174,199.786682 
	C363.843964,149.803268 328.135620,119.357201 275.856018,109.202202 
	C264.875580,107.069313 253.346619,107.760597 241.368805,106.988945 
	C240.447571,106.345238 240.227966,105.863106 240.433517,105.274170 
	C249.246002,105.147743 257.633331,105.128120 266.020660,105.108490 
	C266.394257,105.156929 266.767853,105.205353 267.767914,105.449432 
	C270.594940,105.835823 272.795502,106.026581 274.996063,106.217331 
	C299.488617,110.200050 321.384094,120.084908 340.554443,135.746994 
	C368.357880,158.462280 384.817963,187.795090 390.558411,223.187393 
	C390.823578,224.822250 390.884918,226.490158 390.719330,228.846344 
	C390.233307,231.423248 390.069153,233.296509 389.904968,235.169754 
z"/>
<path fill="#84AEC3" opacity="1.000000" stroke="none" 
	d="
M191.951828,370.351501 
	C194.147903,370.458466 196.588623,370.542358 198.723541,371.393372 
	C238.189682,387.124725 277.062195,385.881805 315.036530,366.819580 
	C323.594604,362.523651 331.264130,356.457703 339.784485,351.302185 
	C340.703644,351.572662 341.180939,351.747498 341.658264,351.922333 
	C325.923218,366.185089 307.310089,375.127563 286.986633,380.364258 
	C258.351807,387.742432 230.032379,386.039124 202.338898,375.529724 
	C198.806564,374.189240 195.477402,372.313385 191.951828,370.351501 
z"/>
<path fill="#84AEC3" opacity="1.000000" stroke="none" 
	d="
M126.015320,189.006363 
	C119.177895,206.664108 114.743240,224.722839 114.728027,243.881287 
	C114.712692,263.191223 118.616058,281.523590 125.609253,299.634033 
	C124.892502,299.998260 124.455399,299.998962 124.018303,299.999634 
	C120.578957,288.811218 115.958130,277.831726 113.935516,266.392822 
	C109.072563,238.890442 112.696556,212.164719 124.813751,186.813919 
	C125.370605,187.607315 125.692963,188.306839 126.015320,189.006363 
z"/>
<path fill="#76A6C1" opacity="1.000000" stroke="none" 
	d="
M341.977936,351.776184 
	C341.180939,351.747498 340.703644,351.572662 340.095642,351.166809 
	C351.583038,340.669189 361.918732,329.300690 369.953094,315.963562 
	C381.175659,297.334015 387.767456,277.205322 389.723602,255.535797 
	C390.298859,257.039185 390.627777,258.508789 390.956696,259.978424 
	C389.091156,282.658691 381.165802,303.196808 368.797089,322.112823 
	C361.486176,333.293854 352.814026,343.302338 341.977936,351.776184 
z"/>
<path fill="#7AA8C1" opacity="1.000000" stroke="none" 
	d="
M124.076584,300.403900 
	C124.455399,299.998962 124.892502,299.998260 125.657387,300.000183 
	C133.991516,316.996552 144.109711,332.573273 158.385117,344.931824 
	C166.255127,351.745087 175.015839,357.531921 183.404770,363.741272 
	C185.032654,364.946228 186.798203,365.965118 188.858627,367.302460 
	C187.769638,367.662476 187.158386,367.864532 186.262344,368.142334 
	C173.225449,360.715820 161.293427,352.118347 151.087875,341.342499 
	C140.429352,330.088409 131.550797,317.572327 125.056549,302.951721 
	C124.956367,302.521057 124.823181,302.274872 124.823181,302.274872 
	C124.593742,301.785980 124.364296,301.297058 124.076584,300.403900 
z"/>
<path fill="#7AA8C1" opacity="1.000000" stroke="none" 
	d="
M240.008362,105.380981 
	C240.227966,105.863106 240.447571,106.345238 240.910309,106.959335 
	C230.504410,109.340111 219.691360,111.011925 209.247131,113.981033 
	C195.618515,117.855392 183.284103,124.728806 171.227921,132.747559 
	C170.225830,132.412064 169.703491,132.227539 169.181168,132.043030 
	C185.157028,119.355347 203.359344,111.538795 224.002518,107.256439 
	C226.279282,106.839043 227.770844,106.509735 229.262405,106.180420 
	C229.262405,106.180420 229.632904,106.206963 230.207184,106.170456 
	C232.303177,105.840843 233.824860,105.547729 235.346558,105.254623 
	C236.009171,105.241211 236.671768,105.227798 238.000275,105.205994 
	C239.113556,105.258728 239.560944,105.319855 240.008362,105.380981 
z"/>
<path fill="#76A6C1" opacity="1.000000" stroke="none" 
	d="
M168.849518,132.151459 
	C169.703491,132.227539 170.225830,132.412064 170.895874,132.842865 
	C155.204224,145.561264 141.525131,159.938568 131.812881,177.779343 
	C129.906586,181.281097 128.246643,184.916977 126.244202,188.748688 
	C125.692963,188.306839 125.370605,187.607315 125.065002,186.600952 
	C133.344254,166.794296 146.287659,150.832794 162.263809,137.176743 
	C164.277863,135.455170 166.429794,133.894882 168.849518,132.151459 
z"/>
<path fill="#6398BB" opacity="1.000000" stroke="none" 
	d="
M391.019287,259.563293 
	C390.627777,258.508789 390.298859,257.039185 389.913940,255.166168 
	C389.858948,248.534073 389.859894,242.305344 389.882904,235.623184 
	C390.069153,233.296509 390.233307,231.423248 390.683136,229.283951 
	C391.006470,239.061325 391.044159,249.104736 391.019287,259.563293 
z"/>
<path fill="#E8E6DD" opacity="1.000000" stroke="none" 
	d="
M240.433502,105.274170 
	C239.560944,105.319855 239.113556,105.258728 238.328445,105.156540 
	C240.360229,104.740463 242.729416,104.052032 245.099258,104.049866 
	C251.882523,104.043655 258.666077,104.315903 265.735077,104.793571 
	C257.633331,105.128120 249.246002,105.147743 240.433502,105.274170 
z"/>
<path fill="#E8E6DD" opacity="1.000000" stroke="none" 
	d="
M274.749329,105.885460 
	C272.795502,106.026581 270.594940,105.835823 268.049683,105.421387 
	C269.970886,105.316330 272.236725,105.434959 274.749329,105.885460 
z"/>
<path fill="#E8E6DD" opacity="1.000000" stroke="none" 
	d="
M228.849243,106.117302 
	C227.770844,106.509735 226.279282,106.839043 224.396515,107.172333 
	C225.482224,106.802269 226.959167,106.428223 228.849243,106.117302 
z"/>
<path fill="#E8E6DD" opacity="1.000000" stroke="none" 
	d="
M234.929810,105.176498 
	C233.824860,105.547729 232.303177,105.840843 230.384949,106.116669 
	C231.496628,105.765717 233.004837,105.432037 234.929810,105.176498 
z"/>
<path fill="#84AEC3" opacity="1.000000" stroke="none" 
	d="
M124.761787,302.357452 
	C124.823181,302.274872 124.956367,302.521057 124.995491,302.579285 
	C125.034615,302.637543 124.700394,302.440033 124.761787,302.357452 
z"/>
<path fill="#6398BB" opacity="1.000000" stroke="none" 
	d="
M336.294006,142.694687 
	C397.037048,192.891266 400.451172,285.498108 343.732971,339.710724 
	C321.004425,361.435242 293.946228,373.592468 262.520172,376.116669 
	C199.305832,381.194214 140.596527,339.833191 124.519913,278.740326 
	C104.679008,203.342712 153.084229,127.848869 229.994980,114.536118 
	C236.103073,113.478851 242.481064,113.747795 248.730545,113.796432 
	C257.465027,113.864403 266.315338,113.490936 274.906464,114.743805 
	C297.841614,118.088524 318.048523,127.937157 336.294006,142.694687 
M320.951935,335.940155 
	C320.951935,335.940155 320.770691,335.731659 321.109833,335.099823 
	C320.900391,333.888977 320.743988,331.646088 320.473022,331.632141 
	C318.475739,331.529510 315.908112,331.200500 314.600250,332.267242 
	C313.352112,333.285187 312.471252,336.369934 313.132416,337.698212 
	C313.936432,339.313416 316.514526,340.885803 318.340729,340.903809 
	C320.001068,340.920288 321.682251,338.829865 323.354248,337.668243 
	C322.617279,337.158600 321.880310,336.648956 320.951935,335.940155 
M350.047089,296.043823 
	C350.047089,296.043823 350.150757,296.146210 350.267120,296.908966 
	C350.489594,298.922394 350.221863,302.450012 351.013153,302.706177 
	C356.601074,304.515076 355.491302,298.815735 359.047699,295.313446 
	C354.487061,294.612427 351.243134,293.551910 348.173309,293.924774 
	C346.982941,294.069397 346.186340,297.455566 345.210388,299.365051 
	C345.688934,299.612549 346.167480,299.860016 346.646027,300.107513 
	C347.746338,298.717651 348.846649,297.327820 350.047089,296.043823 
M187.233200,332.626404 
	C188.478485,333.774780 189.723770,334.923187 190.556488,335.691101 
	C188.189575,336.368591 185.857147,337.036194 183.524704,337.703827 
	C185.369049,340.043854 187.213394,342.383881 189.057739,344.723907 
	C189.794022,344.532257 190.530304,344.340607 191.266586,344.148987 
	C192.101273,341.172363 193.750046,338.098236 193.410339,335.262329 
	C193.252106,333.941528 189.237701,333.082642 186.733902,331.206512 
	C188.431183,325.656494 184.182983,323.656311 180.448441,320.594635 
	C177.543427,324.137604 174.821106,327.457764 171.397446,331.633270 
	C174.747757,331.255768 177.031174,330.323059 177.797226,331.031403 
	C180.801239,333.809021 183.819427,332.942200 187.233200,332.626404 
M352.766846,285.790466 
	C356.027161,285.521881 359.287445,285.253296 362.601166,284.980316 
	C363.040680,286.981506 363.352814,288.402649 363.664917,289.823761 
	C364.200653,289.595673 364.736389,289.367584 365.272125,289.139496 
	C368.045013,282.226624 359.612091,280.939514 357.766144,277.045929 
	C359.862274,275.180115 361.806519,273.449524 363.999512,271.497528 
	C363.824982,273.357513 363.665527,275.056610 363.410858,277.770142 
	C366.657532,274.796906 368.063202,272.049652 365.769623,269.364746 
	C362.511902,265.551300 361.545502,271.087219 359.101746,271.697906 
	C358.913849,267.677826 358.305054,264.104553 364.585052,265.657806 
	C367.959625,266.492462 369.024841,263.777344 368.558868,259.242554 
	C364.775482,264.051361 362.044922,263.847961 359.803986,259.684204 
	C358.199249,260.903961 356.834930,261.940979 356.505066,262.191711 
	C356.505066,265.284485 356.569244,267.409210 356.491791,269.528717 
	C356.326721,274.047089 352.978516,279.190277 360.022156,282.274872 
	C352.931122,283.463379 352.931122,283.463379 351.297089,286.213013 
	C349.904327,286.034607 348.511536,285.856171 346.059479,285.542084 
	C350.622437,290.278412 356.787018,292.760742 360.387085,291.539124 
	C357.391968,289.557220 354.675812,287.759918 352.766846,285.790466 
M277.887939,143.275085 
	C277.945984,140.351089 276.565826,140.044083 274.053467,140.836136 
	C270.525543,141.948334 266.775024,141.193085 265.601105,137.719681 
	C264.760010,135.231018 265.315552,131.290176 266.868378,129.202530 
	C269.191101,126.079849 272.943909,126.669609 276.299652,128.742050 
	C277.176575,129.283615 278.533508,129.047913 279.670013,129.169189 
	C279.245789,128.075073 279.119965,126.656784 278.345123,125.943565 
	C275.161041,123.012726 268.773895,122.704109 264.826782,125.394058 
	C261.055237,127.964394 259.512573,131.808517 260.460449,136.254608 
	C261.501343,141.137192 264.843994,144.142075 269.728455,144.727356 
	C272.428162,145.050873 275.261414,144.260132 278.125641,144.667923 
	C279.527771,145.059967 281.374725,146.225159 282.258667,145.716568 
	C287.379883,142.770096 292.290497,144.517044 294.254120,150.096848 
	C294.663025,151.258713 296.174896,152.032440 297.648529,153.431259 
	C297.648529,146.567459 297.826447,140.770370 297.538116,134.996536 
	C297.453644,133.304245 296.360229,130.671280 295.156982,130.293930 
	C293.853973,129.885284 291.595886,131.282684 290.255554,132.462067 
	C286.035645,136.175293 282.050842,140.155716 277.887939,143.275085 
M222.911835,156.242737 
	C221.825165,156.665726 220.743973,157.103439 219.651047,157.509552 
	C179.938614,172.266342 154.855057,213.747620 159.906189,255.628616 
	C165.924255,305.526642 211.572342,342.344269 262.111206,336.977020 
	C313.897156,331.477325 350.827911,284.581024 344.257690,232.956451 
	C340.992218,207.298462 329.051117,186.563278 308.768982,170.969604 
	C283.180939,151.296509 254.475494,147.162842 222.911835,156.242737 
M187.910660,142.744736 
	C188.663651,146.716843 189.416626,150.688950 190.462250,156.204727 
	C187.154739,153.375443 185.077271,151.551483 182.949570,149.788132 
	C178.654175,146.228241 178.642914,146.241821 175.846100,148.920929 
	C180.239304,152.729813 184.533752,156.617050 189.040771,160.239792 
	C190.103485,161.094009 192.670792,161.799637 193.165649,161.274063 
	C194.159348,160.218643 194.698639,158.213837 194.534882,156.696991 
	C194.175690,153.369705 193.261627,150.102325 192.574112,146.810471 
	C196.468872,148.775330 199.257095,151.332733 202.272614,153.585892 
	C203.090302,154.196854 204.749405,154.274338 205.735031,153.879517 
	C206.516571,153.566452 207.465317,152.029022 207.301163,151.255707 
	C205.942871,144.856567 204.342560,138.508789 202.815475,132.145462 
	C202.203201,132.188797 201.590927,132.232132 200.978653,132.275467 
	C197.396378,137.163422 203.526764,142.499039 201.503845,147.994431 
	C198.296219,145.304810 195.427963,142.831192 192.482819,140.452759 
	C190.276352,138.670853 188.554413,138.816833 187.910660,142.744736 
M179.558517,168.765335 
	C180.778076,169.119934 181.997620,169.474548 183.217178,169.829163 
	C183.156143,168.685440 183.561203,167.082169 182.959305,166.471741 
	C178.690735,162.142471 174.215927,158.016556 169.614532,153.643036 
	C165.293152,159.026108 172.628220,159.562836 172.460617,162.562302 
	C170.261520,165.056366 168.202118,167.391983 166.236557,169.621170 
	C159.321884,165.086975 159.321884,165.086975 157.189743,167.570084 
	C162.093430,172.150665 167.007446,176.740891 172.236603,181.625473 
	C176.149841,176.063797 169.455460,175.530609 169.104553,171.829803 
	C170.889557,169.948502 173.031494,167.691025 175.392456,165.202698 
	C176.799469,166.391083 177.917053,167.335022 179.558517,168.765335 
M148.469467,232.590591 
	C149.649582,231.861298 150.829697,231.132004 152.881424,229.864059 
	C149.640121,228.711426 147.956543,228.112717 146.212753,227.492615 
	C146.489777,225.202301 146.847855,223.095901 146.979523,220.975449 
	C147.252792,216.574509 144.780411,213.910355 140.791153,213.221481 
	C136.643829,212.505295 133.796356,214.733307 132.616119,218.817139 
	C132.063995,220.727554 131.707718,222.693695 131.201035,224.618347 
	C130.424057,227.569763 131.144135,229.348785 134.504242,229.848923 
	C138.937210,230.508789 143.320740,231.500717 148.469467,232.590591 
M325.302734,173.382874 
	C326.193512,173.147705 327.719971,173.123215 327.878357,172.645294 
	C329.815430,166.800705 331.745514,160.934555 333.134949,154.948090 
	C333.347504,154.032410 330.297272,151.167114 329.644714,151.427811 
	C323.256989,153.979736 317.057892,157.003845 310.805176,159.893692 
	C310.488586,160.597504 310.172028,161.301300 309.855438,162.005096 
	C319.204437,160.782181 325.701233,162.716507 325.302734,173.382874 
M216.412994,146.103638 
	C219.767838,141.854858 224.303696,141.133514 228.599426,143.880188 
	C229.641861,144.546707 231.225800,144.366394 232.560730,144.575470 
	C232.735687,144.158798 232.910629,143.742126 233.085587,143.325470 
	C228.746628,138.354034 224.515076,133.282654 220.021896,128.454742 
	C217.882217,126.155670 215.391663,126.760185 214.841644,129.785950 
	C213.646774,136.359222 213.011566,143.034241 212.147583,149.667664 
	C212.677658,149.920593 213.207733,150.173523 213.737808,150.426453 
	C214.569519,149.242783 215.401230,148.059097 216.412994,146.103638 
M356.470093,200.201569 
	C356.312469,202.928711 356.293152,205.674103 355.936981,208.375061 
	C355.767242,209.661804 354.956787,210.864029 354.436554,212.104538 
	C353.327179,211.325714 351.629944,210.772888 351.226257,209.722794 
	C350.276672,207.252731 349.944733,204.545212 349.362885,201.933792 
	C348.803497,201.962738 348.244080,201.991684 347.684692,202.020630 
	C346.044220,205.408295 346.623566,208.886032 348.590454,212.358032 
	C350.261017,215.306915 352.810333,218.035889 356.078278,216.003586 
	C358.024475,214.793274 359.045013,211.361267 359.528687,208.751434 
	C359.959381,206.427322 357.478729,202.724808 361.226929,202.158813 
	C365.045929,201.582123 364.848969,205.534988 365.199615,208.268509 
	C365.262817,208.761169 365.123413,209.434387 365.395782,209.712402 
	C365.908295,210.235428 366.624176,210.749619 367.311584,210.839813 
	C367.726685,210.894287 368.717865,210.004517 368.650177,209.775543 
	C367.607880,206.250015 367.116425,202.285889 365.098602,199.402130 
	C363.085052,196.524399 359.583618,196.842789 356.470093,200.201569 
M158.361450,199.894196 
	C159.634689,199.071854 160.907928,198.249527 163.138184,196.809082 
	C154.820984,196.809082 148.058533,196.646149 141.310684,196.889038 
	C138.601288,196.986572 137.093399,199.371384 139.093460,201.333832 
	C143.992783,206.141068 149.432816,210.397232 154.510406,214.750916 
	C154.383041,214.164291 154.419174,212.591461 153.727463,211.465973 
	C151.525986,207.884033 153.375275,201.976486 158.361450,199.894196 
M274.783447,350.889343 
	C273.586121,345.712433 269.910736,346.891541 266.603271,347.948303 
	C265.279694,348.371185 263.256226,349.901489 263.322113,350.797546 
	C263.590668,354.450195 264.544647,358.052490 265.234772,361.614960 
	C277.029663,360.032623 277.029663,360.032623 274.783447,350.889343 
M350.620667,180.181580 
	C348.091217,184.356125 346.813141,189.474426 341.510529,191.561310 
	C340.847900,191.822067 340.957794,194.045731 340.910004,194.298874 
	C348.730072,193.522400 355.628113,192.837479 363.008820,192.104630 
	C360.371216,186.427856 354.344330,191.070343 351.216492,188.283279 
	C350.806854,183.991425 357.807251,181.258942 353.423248,175.747223 
	C352.372681,177.360687 351.660675,178.454193 350.620667,180.181580 
M371.897339,217.856720 
	C371.193420,216.759659 370.489502,215.662613 369.785614,214.565552 
	C369.114594,216.797516 368.443573,219.029465 367.584900,221.885605 
	C364.302490,222.489960 360.056213,223.092880 355.920319,224.134186 
	C354.546387,224.480118 353.455902,225.951920 352.235840,226.909027 
	C353.762573,227.317337 355.344849,228.209793 356.805511,228.042175 
	C360.997375,227.561172 365.140015,226.651001 369.423279,225.887894 
	C369.734161,227.133026 369.764893,227.828644 370.071198,228.367645 
	C370.778381,229.612061 371.619202,230.780502 372.405792,231.979767 
	C372.851532,230.451828 373.768372,228.884094 373.643341,227.404404 
	C373.395294,224.468796 372.572662,221.581757 371.897339,217.856720 
M242.936493,141.321136 
	C240.602493,134.083145 247.262817,128.980835 247.890030,122.445969 
	C247.360382,122.138687 246.830734,121.831406 246.301086,121.524117 
	C244.099289,124.944389 241.897491,128.364655 239.759033,131.686539 
	C236.012054,129.533066 235.845078,123.315590 229.786102,124.129585 
	C230.074936,125.131111 230.111771,125.837318 230.449844,126.341560 
	C233.811157,131.355148 238.600128,135.415207 239.112473,142.221558 
	C239.314590,144.906494 241.618698,143.884888 242.936493,141.321136 
M152.539642,173.197586 
	C150.750046,176.004364 148.763763,178.709641 147.243393,181.655365 
	C146.305695,183.472153 146.078384,185.655579 145.532150,187.674423 
	C146.993607,186.376526 148.449371,185.072113 149.922470,183.787552 
	C150.152008,183.587387 150.460617,183.477890 150.930939,183.216095 
	C155.488495,186.034180 160.132202,188.905533 164.739075,191.754105 
	C167.524490,189.854080 167.166794,188.434982 164.604691,186.915054 
	C160.638077,184.561905 156.775101,182.034073 152.700516,179.475006 
	C153.696152,177.811890 154.822205,176.615875 155.053635,175.266403 
	C155.176407,174.550537 153.746231,173.568359 152.539642,173.197586 
M305.317505,157.672012 
	C308.477631,153.120148 311.637756,148.568283 314.591736,144.313385 
	C317.070221,144.695892 319.300232,145.040054 321.530212,145.384216 
	C321.632446,144.799164 321.734650,144.214127 321.836884,143.629074 
	C318.917755,141.812515 316.086914,139.826904 313.048218,138.239197 
	C311.043915,137.191956 308.740570,136.717117 306.571106,135.985992 
	C307.740356,137.946411 308.909607,139.906830 310.478088,142.536606 
	C308.710358,145.455841 306.232819,149.164154 304.223053,153.110641 
	C303.654724,154.226593 304.453491,156.038727 305.317505,157.672012 
M336.322266,169.848785 
	C334.360046,171.379303 332.226685,172.743759 330.510254,174.512772 
	C329.692871,175.355148 328.948547,177.434235 329.411835,178.149139 
	C331.295532,181.056061 333.589264,183.714478 335.906525,186.308487 
	C336.367188,186.824173 337.596375,186.653351 338.471161,186.799088 
	C338.454956,185.914505 338.770691,184.815903 338.363068,184.183762 
	C336.882690,181.888168 335.160034,179.748840 333.443298,177.435394 
	C337.472137,174.126053 341.122528,171.266006 344.568115,168.177444 
	C345.235382,167.579315 345.102875,166.088959 345.339264,165.010162 
	C344.338806,165.025940 343.103180,164.671463 342.383148,165.128784 
	C340.432404,166.367767 338.700500,167.951355 336.322266,169.848785 
M215.589203,355.460968 
	C218.593307,359.713745 219.403763,352.904907 222.004898,354.321289 
	C222.554749,355.774597 223.158447,357.370239 224.277985,360.329254 
	C227.044693,356.608002 229.131088,353.801788 231.217484,350.995575 
	C230.728775,350.540588 230.240082,350.085632 229.751373,349.630646 
	C228.702606,351.578491 227.653854,353.526337 226.605087,355.474152 
	C226.140930,355.052094 225.676773,354.630005 225.212616,354.207916 
	C224.764740,352.141541 224.316864,350.075195 223.717545,347.310089 
	C221.419449,349.223389 219.893250,350.494019 218.434616,351.708405 
	C217.685883,349.617401 217.058670,347.865753 216.431442,346.114105 
	C215.933548,346.235107 215.435638,346.356110 214.937729,346.477112 
	C215.090347,349.210693 215.242950,351.944305 215.589203,355.460968 
M338.130554,319.085510 
	C344.240112,322.987549 344.043610,316.692902 346.427429,314.470032 
	C341.462524,308.252289 337.222809,307.053345 334.585693,314.546417 
	C335.638062,316.053314 336.572937,317.391998 338.130554,319.085510 
M137.930054,273.218628 
	C138.197281,278.681000 143.073608,274.875549 145.106491,276.787628 
	C146.091766,275.413818 147.625290,274.157349 147.949631,272.642090 
	C148.651947,269.360962 146.746185,266.871613 143.617950,266.648560 
	C140.083694,266.396576 137.791901,268.512909 137.930054,273.218628 
M141.081818,258.671112 
	C140.609711,259.862183 140.137589,261.053253 139.665482,262.244354 
	C139.255386,262.168457 138.845276,262.092590 138.435181,262.016724 
	C138.091309,259.820709 137.747437,257.624664 137.244873,254.415192 
	C134.256470,258.699341 134.267517,262.718292 137.420166,264.372742 
	C144.689194,268.187286 142.026993,259.032562 145.780807,256.920319 
	C146.506653,259.399872 147.123978,261.508667 148.072678,264.749512 
	C149.704147,259.922424 149.797714,256.461823 146.052536,254.690933 
	C145.131149,254.255280 142.830475,256.736603 141.081818,258.671112 
M232.186707,352.636566 
	C231.808899,354.048431 230.939316,355.553131 231.183716,356.847504 
	C231.459473,358.307892 232.566895,360.538513 233.616379,360.725067 
	C235.568329,361.072021 239.111008,360.733734 239.533997,359.687286 
	C240.397827,357.550323 240.513138,354.068939 239.253845,352.451813 
	C238.281158,351.202698 234.743774,351.950684 232.186707,352.636566 
M286.494415,349.001251 
	C283.661835,346.595306 280.515198,346.918213 278.926849,349.820374 
	C277.969360,351.569855 278.337616,355.383972 279.661682,356.658295 
	C280.930298,357.879303 285.443512,357.967926 286.302765,356.846710 
	C287.567505,355.196442 286.854370,352.030426 286.494415,349.001251 
M201.643799,348.078735 
	C201.643799,349.030701 201.643799,349.982635 201.643799,350.934601 
	C202.059616,351.046570 202.475433,351.158539 202.891251,351.270508 
	C203.675659,349.929230 204.249985,348.379395 205.309982,347.311707 
	C206.180817,346.434631 207.628586,346.130371 208.820648,345.572235 
	C209.034897,346.756744 209.514389,347.967957 209.398392,349.119171 
	C209.242203,350.669403 208.627060,352.173401 207.880478,354.893982 
	C214.599091,349.368195 214.242645,345.407349 208.037842,342.135010 
	C208.037842,340.809875 208.037842,339.484711 208.037842,338.159546 
	C207.572174,337.987366 207.106506,337.815186 206.640854,337.643005 
	C205.070251,340.891449 203.499649,344.139923 201.643799,348.078735 
M167.068878,321.278473 
	C170.040863,320.939392 172.104431,319.531769 171.401459,316.298615 
	C170.736084,313.238342 168.600525,311.345001 165.267319,311.950592 
	C162.013077,312.541809 160.239410,314.853821 161.116180,318.033386 
	C161.785110,320.459229 162.855988,323.570221 167.068878,321.278473 
M308.891724,337.481842 
	C305.714355,337.656128 302.536987,337.830414 298.764374,338.037384 
	C300.736694,341.790680 302.157715,346.165771 306.373688,348.805908 
	C306.380432,347.037811 305.439484,345.639313 305.279816,344.156677 
	C305.146240,342.916168 305.926025,341.577332 306.301392,340.282013 
	C307.351837,340.873169 308.602539,341.271027 309.404541,342.101990 
	C310.532532,343.270660 311.327515,344.760651 312.264923,346.113251 
	C312.868439,345.737488 313.471924,345.361755 314.075439,344.985992 
	C312.563080,342.603577 311.050751,340.221130 308.891724,337.481842 
M327.229004,316.675659 
	C326.428192,317.733795 324.946167,318.803070 324.963226,319.847839 
	C325.003204,322.293152 324.971680,325.579468 326.438934,326.939240 
	C328.100464,328.479065 331.540649,329.120880 333.890533,328.631470 
	C336.667908,328.053070 338.753204,325.639618 338.144318,321.541901 
	C334.843048,323.421143 333.245972,330.040985 328.568329,325.221619 
	C324.037292,320.553314 330.303040,318.910004 333.048859,314.750275 
	C330.349854,315.524597 329.090027,315.886047 327.229004,316.675659 
M151.487091,285.788391 
	C152.773651,282.103882 151.294800,279.165375 147.888718,278.437683 
	C146.099091,278.055267 142.928421,279.688446 141.863373,281.357300 
	C140.057129,284.187500 141.579651,286.862396 145.129166,288.935089 
	C144.654999,286.414368 144.295013,284.500610 143.915573,282.483429 
	C147.275986,282.788361 145.120178,291.309326 151.487091,285.788391 
M158.691376,304.220306 
	C160.631134,305.588989 160.631134,305.588989 156.668182,313.456787 
	C159.159866,312.347504 162.112457,311.154449 163.228378,309.006927 
	C164.103607,307.322662 162.706696,304.457703 162.237198,301.621948 
	C162.563995,301.206848 163.431671,300.104706 164.299362,299.002563 
	C163.896149,298.593109 163.492935,298.183624 163.089722,297.774139 
	C159.298431,300.374542 155.507141,302.974976 151.715851,305.575378 
	C152.048218,306.144928 152.380585,306.714478 152.712952,307.284027 
	C154.473618,306.353180 156.234283,305.422333 158.691376,304.220306 
M245.132706,361.483276 
	C243.923233,362.468994 242.713760,363.454742 241.436966,364.495331 
	C246.268372,366.855713 251.473480,360.696716 252.098129,350.853882 
	C250.127106,353.545990 248.873199,355.258636 247.532669,357.089569 
	C246.049210,355.167847 244.717636,353.442841 243.386063,351.717865 
	C242.989929,351.969604 242.593796,352.221313 242.197647,352.473022 
	C243.150894,355.215881 244.104126,357.958740 245.132706,361.483276 
M294.900879,347.648926 
	C297.831360,353.600952 298.643860,353.895538 302.148895,349.897644 
	C297.154144,349.304749 296.456390,346.502899 298.587219,342.569885 
	C296.737427,342.084869 295.218292,341.686523 291.813599,340.793793 
	C293.080597,343.700562 293.805878,345.364502 294.900879,347.648926 
M201.338104,338.235901 
	C200.616730,337.625031 199.714508,336.386810 199.211029,336.531921 
	C198.113266,336.848358 196.845352,337.670746 196.326645,338.647400 
	C195.513687,340.178070 195.369995,342.047272 194.751892,343.701752 
	C193.393433,347.337952 195.631714,348.000153 199.155197,349.610443 
	C197.483521,344.949738 197.024765,341.801392 201.587799,340.701935 
	C201.724670,340.668976 201.604752,339.570282 201.338104,338.235901 
M351.447937,307.974243 
	C350.986359,307.432037 350.386536,306.351257 350.084076,306.428925 
	C345.974030,307.483978 344.570496,305.454712 344.500580,301.579681 
	C342.724670,302.239899 341.032898,302.868835 339.355591,303.492401 
	C340.808167,307.818909 347.162598,310.456482 351.447937,307.974243 
M152.059174,295.497253 
	C147.144775,298.551819 146.949036,299.850922 151.018768,302.402710 
	C151.457230,297.769928 152.932159,296.824158 158.018372,297.933014 
	C158.299530,296.422821 158.580414,294.914062 158.858444,293.420654 
	C156.112366,291.609863 154.172455,292.551208 152.059174,295.497253 
z"/>
<path fill="#FDFAF4" opacity="1.000000" stroke="none" 
	d="
M223.296249,156.141388 
	C254.475494,147.162842 283.180939,151.296509 308.768982,170.969604 
	C329.051117,186.563278 340.992218,207.298462 344.257690,232.956451 
	C350.827911,284.581024 313.897156,331.477325 262.111206,336.977020 
	C211.572342,342.344269 165.924255,305.526642 159.906189,255.628616 
	C154.855057,213.747620 179.938614,172.266342 219.651047,157.509552 
	C220.743973,157.103439 221.825165,156.665726 223.296249,156.141388 
M189.169113,305.770355 
	C190.436279,306.568085 191.703461,307.365814 193.027298,308.845856 
	C196.523315,311.742218 200.019318,314.638611 204.012787,317.989380 
	C222.940033,331.148071 244.138428,334.394958 266.399841,331.361786 
	C273.478210,330.397339 280.246979,327.160828 287.843872,324.862366 
	C292.063416,322.615906 296.547791,320.746460 300.429626,318.019318 
	C304.490479,315.166412 307.972046,311.488953 312.430969,308.029602 
	C313.345459,307.040863 314.259949,306.052124 315.772064,304.771942 
	C318.286224,301.490906 320.800385,298.209869 323.911194,294.826599 
	C324.968018,293.366119 326.024841,291.905609 327.627075,289.975891 
	C328.865326,287.379211 330.103577,284.782562 331.607361,281.640472 
	C331.600677,281.438385 331.593964,281.236298 332.136963,280.809540 
	C332.720428,279.572998 333.303894,278.336426 334.265015,276.461517 
	C335.194519,273.370453 336.124023,270.279358 337.464355,266.546967 
	C338.788971,261.709320 335.010895,263.321198 333.013824,263.247101 
	C326.205444,262.994324 318.149078,265.205780 312.916138,262.279541 
	C307.500824,259.251282 304.771851,251.362396 300.958893,245.539963 
	C296.266296,238.374268 291.667877,231.146881 286.764099,223.535324 
	C284.169281,227.434464 281.979401,230.725113 279.354767,234.669067 
	C270.854431,221.387817 262.693939,208.637604 254.144821,195.280151 
	C246.191574,207.692566 238.793350,219.238785 230.983261,231.427750 
	C227.407654,225.871231 224.245758,220.957596 220.818207,215.631165 
	C219.787216,217.097260 219.193420,217.874268 218.669983,218.696106 
	C210.178833,232.028183 201.573059,245.290024 193.297806,258.754944 
	C191.187561,262.188568 188.841110,263.490723 184.885727,263.271271 
	C179.093262,262.949921 173.269714,263.188568 166.831863,263.188568 
	C167.126251,264.828674 167.343491,266.038971 167.703583,268.015594 
	C168.744644,271.051270 169.785706,274.086975 170.909637,277.754639 
	C171.513718,278.857910 172.117783,279.961151 172.781586,281.556091 
	C172.781586,281.556091 173.023560,281.988251 173.072296,282.686005 
	C174.559921,285.219116 176.047562,287.752197 177.745514,290.756775 
	C177.842056,290.899719 177.938583,291.042664 178.192871,291.776672 
	C178.765686,292.576721 179.338501,293.376770 180.117722,294.532654 
	C180.274292,294.771210 180.487396,294.937225 180.879166,295.724792 
	C183.219650,298.525238 185.560135,301.325714 188.074524,304.597107 
	C188.343948,304.787964 188.613373,304.978821 189.169113,305.770355 
M212.885834,212.596588 
	C213.091476,213.972931 213.297119,215.349258 213.700912,218.051727 
	C216.402786,214.122375 218.371414,211.259399 220.768127,207.773834 
	C224.399948,213.325500 227.513245,218.084549 231.012863,223.434128 
	C238.911697,211.087997 246.362213,199.442596 254.171051,187.237122 
	C262.823456,200.740082 270.939392,213.405823 279.324066,226.490997 
	C281.971436,222.558426 284.165588,219.299088 286.371826,216.021774 
	C287.843170,217.197769 289.017761,218.136566 290.913940,219.652115 
	C291.322784,214.754898 292.221802,210.763657 291.888519,206.878128 
	C289.732391,181.741989 269.149536,165.692856 244.310303,170.072678 
	C225.148712,173.451401 210.942154,191.774948 212.885834,212.596588 
z"/>
<path fill="#F1EFE7" opacity="1.000000" stroke="none" 
	d="
M187.883286,142.341522 
	C188.554413,138.816833 190.276352,138.670853 192.482819,140.452759 
	C195.427963,142.831192 198.296219,145.304810 201.503845,147.994431 
	C203.526764,142.499039 197.396378,137.163422 200.978653,132.275467 
	C201.590927,132.232132 202.203201,132.188797 202.815475,132.145462 
	C204.342560,138.508789 205.942871,144.856567 207.301163,151.255707 
	C207.465317,152.029022 206.516571,153.566452 205.735031,153.879517 
	C204.749405,154.274338 203.090302,154.196854 202.272614,153.585892 
	C199.257095,151.332733 196.468872,148.775330 192.574112,146.810471 
	C193.261627,150.102325 194.175690,153.369705 194.534882,156.696991 
	C194.698639,158.213837 194.159348,160.218643 193.165649,161.274063 
	C192.670792,161.799637 190.103485,161.094009 189.040771,160.239792 
	C184.533752,156.617050 180.239304,152.729813 175.846100,148.920929 
	C178.642914,146.241821 178.654175,146.228241 182.949570,149.788132 
	C185.077271,151.551483 187.154739,153.375443 190.462250,156.204727 
	C189.416626,150.688950 188.663651,146.716843 187.883286,142.341522 
z"/>
<path fill="#F1EFE7" opacity="1.000000" stroke="none" 
	d="
M179.296585,168.522156 
	C177.917053,167.335022 176.799469,166.391083 175.392456,165.202698 
	C173.031494,167.691025 170.889557,169.948502 169.104553,171.829803 
	C169.455460,175.530609 176.149841,176.063797 172.236603,181.625473 
	C167.007446,176.740891 162.093430,172.150665 157.189743,167.570084 
	C159.321884,165.086975 159.321884,165.086975 166.236557,169.621170 
	C168.202118,167.391983 170.261520,165.056366 172.460617,162.562302 
	C172.628220,159.562836 165.293152,159.026108 169.614532,153.643036 
	C174.215927,158.016556 178.690735,162.142471 182.959305,166.471741 
	C183.561203,167.082169 183.156143,168.685440 183.217178,169.829163 
	C181.997620,169.474548 180.778076,169.119934 179.296585,168.522156 
z"/>
<path fill="#F1EFE7" opacity="1.000000" stroke="none" 
	d="
M148.097504,232.470245 
	C143.320740,231.500717 138.937210,230.508789 134.504242,229.848923 
	C131.144135,229.348785 130.424057,227.569763 131.201035,224.618347 
	C131.707718,222.693695 132.063995,220.727554 132.616119,218.817139 
	C133.796356,214.733307 136.643829,212.505295 140.791153,213.221481 
	C144.780411,213.910355 147.252792,216.574509 146.979523,220.975449 
	C146.847855,223.095901 146.489777,225.202301 146.212753,227.492615 
	C147.956543,228.112717 149.640121,228.711426 152.881424,229.864059 
	C150.829697,231.132004 149.649582,231.861298 148.097504,232.470245 
M142.899719,225.114838 
	C142.982864,224.460953 143.073151,223.807861 143.147919,223.153030 
	C143.442993,220.568527 143.462341,217.393326 140.259750,217.538239 
	C138.489395,217.618362 136.680099,220.406998 135.234726,222.246796 
	C134.697342,222.930801 135.147812,224.390869 135.147812,226.406891 
	C137.891678,226.237488 140.306778,226.088379 142.899719,225.114838 
z"/>
<path fill="#F1EFE7" opacity="1.000000" stroke="none" 
	d="
M277.975006,144.032715 
	C282.050842,140.155716 286.035645,136.175293 290.255554,132.462067 
	C291.595886,131.282684 293.853973,129.885284 295.156982,130.293930 
	C296.360229,130.671280 297.453644,133.304245 297.538116,134.996536 
	C297.826447,140.770370 297.648529,146.567459 297.648529,153.431259 
	C296.174896,152.032440 294.663025,151.258713 294.254120,150.096848 
	C292.290497,144.517044 287.379883,142.770096 282.258667,145.716568 
	C281.374725,146.225159 279.527771,145.059967 278.064209,144.334167 
	C278.002808,144.000397 277.975006,144.032715 277.975006,144.032715 
M288.181580,139.719650 
	C289.790894,140.935165 291.400208,142.150681 294.202728,144.267410 
	C293.927643,140.064438 293.767883,137.623306 293.608124,135.182175 
	C293.140747,134.972595 292.673370,134.763016 292.205994,134.553421 
	C290.974823,136.060577 289.743622,137.567719 288.181580,139.719650 
z"/>
<path fill="#F1EFE7" opacity="1.000000" stroke="none" 
	d="
M325.033173,173.131653 
	C325.701233,162.716507 319.204437,160.782181 309.855438,162.005096 
	C310.172028,161.301300 310.488586,160.597504 310.805176,159.893692 
	C317.057892,157.003845 323.256989,153.979736 329.644714,151.427811 
	C330.297272,151.167114 333.347504,154.032410 333.134949,154.948090 
	C331.745514,160.934555 329.815430,166.800705 327.878357,172.645294 
	C327.719971,173.123215 326.193512,173.147705 325.033173,173.131653 
M327.978943,160.392258 
	C328.305176,159.054245 328.631378,157.716248 329.244934,155.199783 
	C326.010437,156.774277 323.899719,157.801727 321.789001,158.829193 
	C323.893494,160.032593 324.153870,165.861465 327.978943,160.392258 
z"/>
<path fill="#E8E6DD" opacity="1.000000" stroke="none" 
	d="
M352.016052,286.009949 
	C352.931122,283.463379 352.931122,283.463379 360.022156,282.274872 
	C352.978516,279.190277 356.326721,274.047089 356.491791,269.528717 
	C356.569244,267.409210 356.505066,265.284485 356.505066,262.191711 
	C356.834930,261.940979 358.199249,260.903961 359.803986,259.684204 
	C362.044922,263.847961 364.775482,264.051361 368.558868,259.242554 
	C369.024841,263.777344 367.959625,266.492462 364.585052,265.657806 
	C358.305054,264.104553 358.913849,267.677826 359.101746,271.697906 
	C361.545502,271.087219 362.511902,265.551300 365.769623,269.364746 
	C368.063202,272.049652 366.657532,274.796906 363.410858,277.770142 
	C363.665527,275.056610 363.824982,273.357513 363.999512,271.497528 
	C361.806519,273.449524 359.862274,275.180115 357.766144,277.045929 
	C359.612091,280.939514 368.045013,282.226624 365.272125,289.139496 
	C364.736389,289.367584 364.200653,289.595673 363.664917,289.823761 
	C363.352814,288.402649 363.040680,286.981506 362.601166,284.980316 
	C359.287445,285.253296 356.027161,285.521881 352.377045,285.889160 
	C351.987244,285.987854 352.016052,286.009949 352.016052,286.009949 
z"/>
<path fill="#F1EFE7" opacity="1.000000" stroke="none" 
	d="
M216.322968,146.489532 
	C215.401230,148.059097 214.569519,149.242783 213.737808,150.426453 
	C213.207733,150.173523 212.677658,149.920593 212.147583,149.667664 
	C213.011566,143.034241 213.646774,136.359222 214.841644,129.785950 
	C215.391663,126.760185 217.882217,126.155670 220.021896,128.454742 
	C224.515076,133.282654 228.746628,138.354034 233.085587,143.325470 
	C232.910629,143.742126 232.735687,144.158798 232.560730,144.575470 
	C231.225800,144.366394 229.641861,144.546707 228.599426,143.880188 
	C224.303696,141.133514 219.767838,141.854858 216.322968,146.489532 
M223.432053,138.436676 
	C222.010315,136.481140 220.588593,134.525589 219.166870,132.570053 
	C218.651627,132.755264 218.136383,132.940491 217.621140,133.125702 
	C217.467651,135.517563 217.314163,137.909409 217.117676,140.971390 
	C219.639694,140.087952 221.305176,139.504547 223.432053,138.436676 
z"/>
<path fill="#F1EFE7" opacity="1.000000" stroke="none" 
	d="
M356.667236,199.878784 
	C359.583618,196.842789 363.085052,196.524399 365.098602,199.402130 
	C367.116425,202.285889 367.607880,206.250015 368.650177,209.775543 
	C368.717865,210.004517 367.726685,210.894287 367.311584,210.839813 
	C366.624176,210.749619 365.908295,210.235428 365.395782,209.712402 
	C365.123413,209.434387 365.262817,208.761169 365.199615,208.268509 
	C364.848969,205.534988 365.045929,201.582123 361.226929,202.158813 
	C357.478729,202.724808 359.959381,206.427322 359.528687,208.751434 
	C359.045013,211.361267 358.024475,214.793274 356.078278,216.003586 
	C352.810333,218.035889 350.261017,215.306915 348.590454,212.358032 
	C346.623566,208.886032 346.044220,205.408295 347.684692,202.020630 
	C348.244080,201.991684 348.803497,201.962738 349.362885,201.933792 
	C349.944733,204.545212 350.276672,207.252731 351.226257,209.722794 
	C351.629944,210.772888 353.327179,211.325714 354.436554,212.104538 
	C354.956787,210.864029 355.767242,209.661804 355.936981,208.375061 
	C356.293152,205.674103 356.312469,202.928711 356.667236,199.878784 
z"/>
<path fill="#F8F4EE" opacity="1.000000" stroke="none" 
	d="
M157.959656,199.901855 
	C153.375275,201.976486 151.525986,207.884033 153.727463,211.465973 
	C154.419174,212.591461 154.383041,214.164291 154.510406,214.750916 
	C149.432816,210.397232 143.992783,206.141068 139.093460,201.333832 
	C137.093399,199.371384 138.601288,196.986572 141.310684,196.889038 
	C148.058533,196.646149 154.820984,196.809082 163.138184,196.809082 
	C160.907928,198.249527 159.634689,199.071854 157.959656,199.901855 
M144.050461,200.318787 
	C145.534149,202.374512 147.017838,204.430252 149.151306,207.386276 
	C150.362946,204.180984 151.053772,202.353470 151.884399,200.156143 
	C148.973297,200.156143 146.851257,200.156143 144.050461,200.318787 
z"/>
<path fill="#F1EFE7" opacity="1.000000" stroke="none" 
	d="
M278.018616,143.986038 
	C275.261414,144.260132 272.428162,145.050873 269.728455,144.727356 
	C264.843994,144.142075 261.501343,141.137192 260.460449,136.254608 
	C259.512573,131.808517 261.055237,127.964394 264.826782,125.394058 
	C268.773895,122.704109 275.161041,123.012726 278.345123,125.943565 
	C279.119965,126.656784 279.245789,128.075073 279.669983,129.169189 
	C278.533508,129.047913 277.176575,129.283615 276.299652,128.742050 
	C272.943909,126.669609 269.191101,126.079849 266.868378,129.202530 
	C265.315552,131.290176 264.760010,135.231018 265.601105,137.719681 
	C266.775024,141.193085 270.525543,141.948334 274.053467,140.836136 
	C276.565826,140.044083 277.945984,140.351089 277.931458,143.653900 
	C277.975006,144.032715 278.002808,144.000397 278.018616,143.986038 
z"/>
<path fill="#E8E6DD" opacity="1.000000" stroke="none" 
	d="
M274.766541,351.302185 
	C277.029663,360.032623 277.029663,360.032623 265.234772,361.614960 
	C264.544647,358.052490 263.590668,354.450195 263.322113,350.797546 
	C263.256226,349.901489 265.279694,348.371185 266.603271,347.948303 
	C269.910736,346.891541 273.586121,345.712433 274.766541,351.302185 
z"/>
<path fill="#F1EFE7" opacity="1.000000" stroke="none" 
	d="
M350.784668,179.864639 
	C351.660675,178.454193 352.372681,177.360687 353.423248,175.747223 
	C357.807251,181.258942 350.806854,183.991425 351.216492,188.283279 
	C354.344330,191.070343 360.371216,186.427856 363.008820,192.104630 
	C355.628113,192.837479 348.730072,193.522400 340.910004,194.298874 
	C340.957794,194.045731 340.847900,191.822067 341.510529,191.561310 
	C346.813141,189.474426 348.091217,184.356125 350.784668,179.864639 
z"/>
<path fill="#F1EFE7" opacity="1.000000" stroke="none" 
	d="
M371.942413,218.265686 
	C372.572662,221.581757 373.395294,224.468796 373.643341,227.404404 
	C373.768372,228.884094 372.851532,230.451828 372.405823,231.979767 
	C371.619202,230.780502 370.778381,229.612061 370.071198,228.367645 
	C369.764893,227.828644 369.734161,227.133026 369.423279,225.887894 
	C365.140015,226.651001 360.997375,227.561172 356.805511,228.042175 
	C355.344849,228.209793 353.762573,227.317337 352.235840,226.909027 
	C353.455902,225.951920 354.546387,224.480118 355.920319,224.134186 
	C360.056213,223.092880 364.302490,222.489960 367.584900,221.885605 
	C368.443573,219.029465 369.114594,216.797516 369.785614,214.565552 
	C370.489502,215.662613 371.193420,216.759659 371.942413,218.265686 
z"/>
<path fill="#F1EFE7" opacity="1.000000" stroke="none" 
	d="
M242.906219,141.706543 
	C241.618698,143.884888 239.314590,144.906494 239.112473,142.221558 
	C238.600128,135.415207 233.811157,131.355148 230.449844,126.341560 
	C230.111771,125.837318 230.074936,125.131111 229.786102,124.129585 
	C235.845078,123.315590 236.012054,129.533066 239.759033,131.686539 
	C241.897491,128.364655 244.099289,124.944389 246.301086,121.524117 
	C246.830734,121.831406 247.360382,122.138687 247.890030,122.445969 
	C247.262817,128.980835 240.602493,134.083145 242.906219,141.706543 
z"/>
<path fill="#F8F4EE" opacity="1.000000" stroke="none" 
	d="
M152.778351,172.951996 
	C153.746231,173.568359 155.176407,174.550537 155.053635,175.266403 
	C154.822205,176.615875 153.696152,177.811890 152.700516,179.475006 
	C156.775101,182.034073 160.638077,184.561905 164.604691,186.915054 
	C167.166794,188.434982 167.524490,189.854080 164.739075,191.754105 
	C160.132202,188.905533 155.488495,186.034180 150.930939,183.216095 
	C150.460617,183.477890 150.152008,183.587387 149.922470,183.787552 
	C148.449371,185.072113 146.993607,186.376526 145.532150,187.674408 
	C146.078384,185.655579 146.305695,183.472153 147.243393,181.655365 
	C148.763763,178.709641 150.750046,176.004364 152.778351,172.951996 
z"/>
<path fill="#F1EFE7" opacity="1.000000" stroke="none" 
	d="
M304.971375,157.601807 
	C304.453491,156.038727 303.654724,154.226593 304.223053,153.110641 
	C306.232819,149.164154 308.710358,145.455841 310.478088,142.536606 
	C308.909607,139.906830 307.740356,137.946411 306.571106,135.985992 
	C308.740570,136.717117 311.043915,137.191956 313.048218,138.239197 
	C316.086914,139.826904 318.917755,141.812515 321.836884,143.629074 
	C321.734650,144.214127 321.632446,144.799164 321.530212,145.384216 
	C319.300232,145.040054 317.070221,144.695892 314.591736,144.313385 
	C311.637756,148.568283 308.477631,153.120148 304.971375,157.601807 
z"/>
<path fill="#F1EFE7" opacity="1.000000" stroke="none" 
	d="
M336.602051,169.623535 
	C338.700500,167.951355 340.432404,166.367767 342.383148,165.128784 
	C343.103180,164.671463 344.338806,165.025940 345.339294,165.010162 
	C345.102875,166.088959 345.235382,167.579315 344.568115,168.177444 
	C341.122528,171.266006 337.472137,174.126053 333.443298,177.435394 
	C335.160034,179.748840 336.882690,181.888168 338.363068,184.183762 
	C338.770691,184.815903 338.454956,185.914505 338.471161,186.799088 
	C337.596375,186.653351 336.367188,186.824173 335.906525,186.308487 
	C333.589264,183.714478 331.295532,181.056061 329.411835,178.149139 
	C328.948547,177.434235 329.692871,175.355148 330.510254,174.512772 
	C332.226685,172.743759 334.360046,171.379303 336.602051,169.623535 
z"/>
<path fill="#E8E6DD" opacity="1.000000" stroke="none" 
	d="
M215.492386,355.069427 
	C215.242950,351.944305 215.090347,349.210693 214.937729,346.477112 
	C215.435638,346.356110 215.933548,346.235107 216.431442,346.114105 
	C217.058670,347.865753 217.685883,349.617401 218.434616,351.708405 
	C219.893250,350.494019 221.419449,349.223389 223.717545,347.310089 
	C224.316864,350.075195 224.764740,352.141541 225.212616,354.207916 
	C225.676773,354.630005 226.140930,355.052094 226.605087,355.474152 
	C227.653854,353.526337 228.702606,351.578491 229.751373,349.630646 
	C230.240082,350.085632 230.728775,350.540588 231.217484,350.995575 
	C229.131088,353.801788 227.044693,356.608002 224.277985,360.329254 
	C223.158447,357.370239 222.554749,355.774597 222.004898,354.321289 
	C219.403763,352.904907 218.593307,359.713745 215.492386,355.069427 
z"/>
<path fill="#E8E6DD" opacity="1.000000" stroke="none" 
	d="
M337.819214,318.908112 
	C336.572937,317.391998 335.638062,316.053314 334.585693,314.546417 
	C337.222809,307.053345 341.462524,308.252289 346.427429,314.470032 
	C344.043610,316.692902 344.240112,322.987549 337.819214,318.908112 
z"/>
<path fill="#E8E6DD" opacity="1.000000" stroke="none" 
	d="
M137.907288,272.826111 
	C137.791901,268.512909 140.083694,266.396576 143.617950,266.648560 
	C146.746185,266.871613 148.651947,269.360962 147.949631,272.642090 
	C147.625290,274.157349 146.091766,275.413818 145.106476,276.787628 
	C143.073608,274.875549 138.197281,278.681000 137.907288,272.826111 
z"/>
<path fill="#E8E6DD" opacity="1.000000" stroke="none" 
	d="
M141.122864,258.274017 
	C142.830475,256.736603 145.131149,254.255280 146.052536,254.690933 
	C149.797714,256.461823 149.704147,259.922424 148.072678,264.749512 
	C147.123978,261.508667 146.506653,259.399872 145.780807,256.920319 
	C142.026993,259.032562 144.689194,268.187286 137.420166,264.372742 
	C134.267517,262.718292 134.256470,258.699341 137.244873,254.415192 
	C137.747437,257.624664 138.091309,259.820709 138.435181,262.016724 
	C138.845276,262.092590 139.255386,262.168457 139.665482,262.244354 
	C140.137589,261.053253 140.609711,259.862183 141.122864,258.274017 
z"/>
<path fill="#E8E6DD" opacity="1.000000" stroke="none" 
	d="
M232.266678,352.223694 
	C234.743774,351.950684 238.281158,351.202698 239.253845,352.451813 
	C240.513138,354.068939 240.397827,357.550323 239.533997,359.687286 
	C239.111008,360.733734 235.568329,361.072021 233.616379,360.725067 
	C232.566895,360.538513 231.459473,358.307892 231.183716,356.847504 
	C230.939316,355.553131 231.808899,354.048431 232.266678,352.223694 
z"/>
<path fill="#E8E6DD" opacity="1.000000" stroke="none" 
	d="
M286.739075,349.255646 
	C286.854370,352.030426 287.567505,355.196442 286.302765,356.846710 
	C285.443512,357.967926 280.930298,357.879303 279.661682,356.658295 
	C278.337616,355.383972 277.969360,351.569855 278.926849,349.820374 
	C280.515198,346.918213 283.661835,346.595306 286.739075,349.255646 
M284.212891,353.937988 
	C283.348785,354.148865 282.484680,354.359711 281.620575,354.570587 
	C281.803955,355.031799 281.987366,355.493042 282.170746,355.954254 
	C283.033936,355.418671 283.897095,354.883118 284.212891,353.937988 
z"/>
<path fill="#F1EFE7" opacity="1.000000" stroke="none" 
	d="
M187.004669,331.974030 
	C183.819427,332.942200 180.801239,333.809021 177.797226,331.031403 
	C177.031174,330.323059 174.747757,331.255768 171.397446,331.633270 
	C174.821106,327.457764 177.543427,324.137604 180.448441,320.594635 
	C184.182983,323.656311 188.431183,325.656494 186.871017,331.608521 
	C187.008133,332.010498 187.004669,331.974030 187.004669,331.974030 
M181.546021,330.575684 
	C182.519653,329.556702 183.493286,328.537689 184.466919,327.518677 
	C183.535492,326.632629 182.721619,325.496735 181.617676,324.977325 
	C181.143005,324.753998 179.331116,325.950836 179.390472,326.259460 
	C179.653046,327.624939 180.374924,328.902100 181.546021,330.575684 
z"/>
<path fill="#E8E6DD" opacity="1.000000" stroke="none" 
	d="
M201.786423,347.733551 
	C203.499649,344.139923 205.070251,340.891449 206.640854,337.643005 
	C207.106506,337.815186 207.572174,337.987366 208.037842,338.159546 
	C208.037842,339.484711 208.037842,340.809875 208.044815,342.135681 
	C214.242645,345.407349 214.599091,349.368195 207.880478,354.893982 
	C208.627060,352.173401 209.242203,350.669403 209.398392,349.119171 
	C209.514389,347.967957 209.034897,346.756744 208.820648,345.572235 
	C207.628586,346.130371 206.180817,346.434631 205.309982,347.311707 
	C204.249985,348.379395 203.675659,349.929230 202.891251,351.270508 
	C202.475433,351.158539 202.059616,351.046570 201.643799,350.934601 
	C201.643799,349.982635 201.643799,349.030701 201.786423,347.733551 
z"/>
<path fill="#F1EFE7" opacity="1.000000" stroke="none" 
	d="
M166.905258,321.612152 
	C162.855988,323.570221 161.785110,320.459229 161.116180,318.033386 
	C160.239410,314.853821 162.013077,312.541809 165.267319,311.950592 
	C168.600525,311.345001 170.736084,313.238342 171.401459,316.298615 
	C172.104431,319.531769 170.040863,320.939392 166.905258,321.612152 
M166.110825,318.761200 
	C165.310440,317.885345 164.510056,317.009491 163.709656,316.133636 
	C163.358978,316.628784 163.008301,317.123932 162.657623,317.619110 
	C163.847595,318.248505 165.037582,318.877930 166.110825,318.761200 
z"/>
<path fill="#E8E6DD" opacity="1.000000" stroke="none" 
	d="
M349.946960,295.937958 
	C348.846649,297.327820 347.746338,298.717651 346.646027,300.107513 
	C346.167480,299.860016 345.688934,299.612549 345.210388,299.365051 
	C346.186340,297.455566 346.982941,294.069397 348.173309,293.924774 
	C351.243134,293.551910 354.487061,294.612427 359.047699,295.313446 
	C355.491302,298.815735 356.601074,304.515076 351.013153,302.706177 
	C350.221863,302.450012 350.489594,298.922394 350.362701,296.470306 
	C350.287842,296.000427 350.117401,295.969208 349.946960,295.937958 
z"/>
<path fill="#E8E6DD" opacity="1.000000" stroke="none" 
	d="
M309.215057,337.660278 
	C311.050751,340.221130 312.563080,342.603577 314.075439,344.985992 
	C313.471924,345.361755 312.868439,345.737488 312.264923,346.113251 
	C311.327515,344.760651 310.532532,343.270660 309.404541,342.101990 
	C308.602539,341.271027 307.351837,340.873169 306.301392,340.282013 
	C305.926025,341.577332 305.146240,342.916168 305.279816,344.156677 
	C305.439484,345.639313 306.380432,347.037811 306.373688,348.805908 
	C302.157715,346.165771 300.736694,341.790680 298.764374,338.037384 
	C302.536987,337.830414 305.714355,337.656128 309.215057,337.660278 
z"/>
<path fill="#E8E6DD" opacity="1.000000" stroke="none" 
	d="
M186.989685,332.012451 
	C189.237701,333.082642 193.252106,333.941528 193.410339,335.262329 
	C193.750046,338.098236 192.101273,341.172363 191.266586,344.148987 
	C190.530304,344.340607 189.794022,344.532257 189.057739,344.723907 
	C187.213394,342.383881 185.369049,340.043854 183.524704,337.703827 
	C185.857147,337.036194 188.189575,336.368591 190.556488,335.691101 
	C189.723770,334.923187 188.478485,333.774780 187.118927,332.300232 
	C187.004669,331.974030 187.008133,332.010498 186.989685,332.012451 
z"/>
<path fill="#E8E6DD" opacity="1.000000" stroke="none" 
	d="
M327.529602,316.461578 
	C329.090027,315.886047 330.349854,315.524597 333.048859,314.750275 
	C330.303040,318.910004 324.037292,320.553314 328.568329,325.221619 
	C333.245972,330.040985 334.843048,323.421143 338.144318,321.541901 
	C338.753204,325.639618 336.667908,328.053070 333.890533,328.631470 
	C331.540649,329.120880 328.100464,328.479065 326.438934,326.939240 
	C324.971680,325.579468 325.003204,322.293152 324.963226,319.847839 
	C324.946167,318.803070 326.428192,317.733795 327.529602,316.461578 
z"/>
<path fill="#E8E6DD" opacity="1.000000" stroke="none" 
	d="
M151.259094,286.100311 
	C145.120178,291.309326 147.275986,282.788361 143.915573,282.483429 
	C144.295013,284.500610 144.654999,286.414368 145.129166,288.935089 
	C141.579651,286.862396 140.057129,284.187500 141.863373,281.357300 
	C142.928421,279.688446 146.099091,278.055267 147.888718,278.437683 
	C151.294800,279.165375 152.773651,282.103882 151.259094,286.100311 
z"/>
<path fill="#E8E6DD" opacity="1.000000" stroke="none" 
	d="
M321.143341,336.139282 
	C321.880310,336.648956 322.617279,337.158600 323.354248,337.668243 
	C321.682251,338.829865 320.001068,340.920288 318.340729,340.903809 
	C316.514526,340.885803 313.936432,339.313416 313.132416,337.698212 
	C312.471252,336.369934 313.352112,333.285187 314.600250,332.267242 
	C315.908112,331.200500 318.475739,331.529510 320.473022,331.632141 
	C320.743988,331.646088 320.900391,333.888977 320.608276,335.486542 
	C319.076874,336.584259 318.047058,337.295288 317.017242,338.006287 
	C317.398682,338.435272 317.780121,338.864258 318.161560,339.293243 
	C319.155487,338.241943 320.149414,337.190613 321.143341,336.139282 
z"/>
<path fill="#F1EFE7" opacity="1.000000" stroke="none" 
	d="
M158.343170,304.355896 
	C156.234283,305.422333 154.473618,306.353180 152.712952,307.284027 
	C152.380585,306.714478 152.048218,306.144928 151.715851,305.575378 
	C155.507141,302.974976 159.298431,300.374542 163.089722,297.774139 
	C163.492935,298.183624 163.896149,298.593109 164.299362,299.002563 
	C163.431671,300.104706 162.563995,301.206848 162.237198,301.621948 
	C162.706696,304.457703 164.103607,307.322662 163.228378,309.006927 
	C162.112457,311.154449 159.159866,312.347504 156.668182,313.456787 
	C160.631134,305.588989 160.631134,305.588989 158.343170,304.355896 
z"/>
<path fill="#E8E6DD" opacity="1.000000" stroke="none" 
	d="
M245.095032,361.092438 
	C244.104126,357.958740 243.150894,355.215881 242.197647,352.473022 
	C242.593796,352.221313 242.989929,351.969604 243.386063,351.717865 
	C244.717636,353.442841 246.049210,355.167847 247.532669,357.089569 
	C248.873199,355.258636 250.127106,353.545990 252.098129,350.853882 
	C251.473480,360.696716 246.268372,366.855713 241.436966,364.495331 
	C242.713760,363.454742 243.923233,362.468994 245.095032,361.092438 
z"/>
<path fill="#E8E6DD" opacity="1.000000" stroke="none" 
	d="
M294.716003,347.338684 
	C293.805878,345.364502 293.080597,343.700562 291.813599,340.793793 
	C295.218292,341.686523 296.737427,342.084869 298.587219,342.569885 
	C296.456390,346.502899 297.154144,349.304749 302.148895,349.897644 
	C298.643860,353.895538 297.831360,353.600952 294.716003,347.338684 
z"/>
<path fill="#E8E6DD" opacity="1.000000" stroke="none" 
	d="
M201.471329,338.602173 
	C201.604752,339.570282 201.724670,340.668976 201.587799,340.701935 
	C197.024765,341.801392 197.483521,344.949738 199.155197,349.610443 
	C195.631714,348.000153 193.393433,347.337952 194.751892,343.701752 
	C195.369995,342.047272 195.513687,340.178070 196.326645,338.647400 
	C196.845352,337.670746 198.113266,336.848358 199.211029,336.531921 
	C199.714508,336.386810 200.616730,337.625031 201.471329,338.602173 
z"/>
<path fill="#E8E6DD" opacity="1.000000" stroke="none" 
	d="
M351.237793,308.279144 
	C347.162598,310.456482 340.808167,307.818909 339.355591,303.492401 
	C341.032898,302.868835 342.724670,302.239899 344.500580,301.579681 
	C344.570496,305.454712 345.974030,307.483978 350.084076,306.428925 
	C350.386536,306.351257 350.986359,307.432037 351.237793,308.279144 
z"/>
<path fill="#E8E6DD" opacity="1.000000" stroke="none" 
	d="
M152.377960,295.315125 
	C154.172455,292.551208 156.112366,291.609863 158.858444,293.420654 
	C158.580414,294.914062 158.299530,296.422821 158.018372,297.933014 
	C152.932159,296.824158 151.457230,297.769928 151.018768,302.402710 
	C146.949036,299.850922 147.144775,298.551819 152.377960,295.315125 
z"/>
<path fill="#E8E6DD" opacity="1.000000" stroke="none" 
	d="
M351.973450,285.975220 
	C354.675812,287.759918 357.391968,289.557220 360.387085,291.539124 
	C356.787018,292.760742 350.622437,290.278412 346.059479,285.542084 
	C348.511536,285.856171 349.904327,286.034607 351.656555,286.111481 
	C352.016052,286.009949 351.987244,285.987854 351.973450,285.975220 
z"/>
<path fill="#6498BA" opacity="1.000000" stroke="none" 
	d="
M287.157440,324.964020 
	C280.246979,327.160828 273.478210,330.397339 266.399841,331.361786 
	C244.138428,334.394958 222.940033,331.148071 203.973083,317.419128 
	C208.026321,309.815704 215.449722,308.205444 222.299438,306.003723 
	C233.499390,302.403748 244.900543,299.433441 256.140594,295.951477 
	C258.640289,295.177094 260.823456,293.380829 263.152344,292.055084 
	C263.133789,291.518585 263.115234,290.982086 263.096649,290.445587 
	C260.695587,289.232849 258.360077,287.861084 255.880600,286.838470 
	C249.524826,284.217102 242.957047,282.057617 236.780792,279.077637 
	C234.167572,277.816803 232.323776,274.961243 230.130280,272.830505 
	C232.376312,271.152740 234.623184,269.476105 236.862854,267.789886 
	C236.911102,267.753540 236.876678,267.607391 236.883194,267.458038 
	C236.260605,267.304535 235.627594,267.148438 234.698212,266.699066 
	C233.593643,266.270905 232.785553,266.019226 231.977203,266.018311 
	C211.884964,265.996094 191.792679,265.983521 171.700592,266.041016 
	C170.466919,266.044525 169.234955,266.638611 167.914139,267.064575 
	C167.826096,267.171204 167.560730,267.249237 167.560730,267.249237 
	C167.343491,266.038971 167.126251,264.828674 166.831863,263.188568 
	C173.269714,263.188568 179.093262,262.949921 184.885727,263.271271 
	C188.841110,263.490723 191.187561,262.188568 193.297806,258.754944 
	C201.573059,245.290024 210.178833,232.028183 218.669983,218.696106 
	C219.193420,217.874268 219.787216,217.097260 220.818207,215.631165 
	C224.245758,220.957596 227.407654,225.871231 230.983261,231.427750 
	C238.793350,219.238785 246.191574,207.692566 254.144821,195.280151 
	C262.693939,208.637604 270.854431,221.387817 279.354767,234.669067 
	C281.979401,230.725113 284.169281,227.434464 286.764099,223.535324 
	C291.667877,231.146881 296.266296,238.374268 300.958893,245.539963 
	C304.771851,251.362396 307.500824,259.251282 312.916138,262.279541 
	C318.149078,265.205780 326.205444,262.994324 333.013824,263.247101 
	C335.010895,263.321198 338.788971,261.709320 336.969482,266.887329 
	C336.283997,267.258026 336.093384,267.288361 335.935303,267.218658 
	C335.967896,267.118652 336.009216,266.912445 335.696167,266.639801 
	C334.736542,266.246613 334.090088,266.021210 333.443451,266.020691 
	C308.842896,266.000977 284.242340,265.986694 259.641937,266.045929 
	C258.431427,266.048859 257.222534,266.718506 255.950836,267.253845 
	C255.888748,267.429993 255.794815,267.791473 255.826019,267.834961 
	C255.857208,267.878418 255.918365,267.790619 255.516815,267.757080 
	C253.570419,268.047424 252.025574,268.371307 250.363739,268.597351 
	C250.246765,268.499451 249.964844,268.615997 249.562469,268.624329 
	C248.117294,268.834015 247.074478,269.035339 245.721268,269.260925 
	C244.583572,269.951752 243.756287,270.618317 242.928986,271.284851 
	C243.880554,272.102936 244.707703,273.355896 245.803619,273.669434 
	C253.628510,275.907898 261.577393,277.730621 269.350098,280.128632 
	C276.465729,282.323883 283.709717,284.464264 290.357483,287.727997 
	C299.700958,292.315155 300.438873,298.751892 293.205292,306.369629 
	C290.928284,308.767548 288.087616,310.622772 285.732391,312.955994 
	C283.464020,315.203186 281.489563,317.747040 279.385986,320.160522 
	C281.976471,321.761688 284.566956,323.362854 287.157440,324.964020 
M240.057175,242.061096 
	C240.057175,242.061096 239.904800,241.916290 239.970718,241.209793 
	C244.633698,233.334641 249.275803,225.447006 253.967575,217.589035 
	C256.732208,212.958664 256.613007,208.490814 253.281509,203.323502 
	C240.770020,223.047638 228.341202,242.641434 215.884796,262.278717 
	C229.098557,265.939636 238.733658,261.935791 245.095398,249.798706 
	C245.366257,250.204849 245.637100,250.610992 245.907944,251.017136 
	C244.792496,254.852066 243.677048,258.686981 242.443100,262.929260 
	C244.845016,263.049255 246.319687,263.180206 247.794907,263.186523 
	C253.588226,263.211212 259.381714,263.196625 266.054199,263.196625 
	C264.429962,260.408386 263.457886,258.108002 261.935425,256.261322 
	C259.016510,252.720779 258.902954,249.359436 261.089447,245.361572 
	C262.776733,242.276520 263.727325,238.788559 265.566467,234.027390 
	C260.387665,237.432098 256.625244,237.947174 253.836716,233.475433 
	C249.071625,236.528687 244.638962,239.368958 240.057175,242.061096 
M220.833710,247.434540 
	C218.342041,247.668640 215.850372,247.902740 212.912170,248.178802 
	C215.439667,244.173431 218.580200,240.655899 219.987518,236.544998 
	C221.323273,232.643143 220.844666,228.120178 221.163910,223.870331 
	C220.702148,223.805222 220.240387,223.740112 219.778625,223.675003 
	C211.674545,236.491669 203.570465,249.308319 195.289017,262.405457 
	C208.155228,265.000244 210.449661,264.064880 216.500183,254.384048 
	C217.824112,252.265747 219.201355,250.180725 220.833710,247.434540 
M289.704712,242.854691 
	C288.759491,240.247513 287.814270,237.640335 286.869019,235.033157 
	C286.405121,234.959030 285.941193,234.884903 285.477295,234.810776 
	C284.850342,237.099716 283.040894,239.958618 283.817993,241.570801 
	C286.155273,246.419952 289.500458,250.783295 292.452454,255.336151 
	C292.723389,255.204361 292.994354,255.072571 293.265289,254.940781 
	C292.142395,251.170807 291.019470,247.400848 289.704712,242.854691 
z"/>
<path fill="#FFC746" opacity="1.000000" stroke="none" 
	d="
M212.809967,212.189301 
	C210.942154,191.774948 225.148712,173.451401 244.310303,170.072678 
	C269.149536,165.692856 289.732391,181.741989 291.888519,206.878128 
	C292.221802,210.763657 291.322784,214.754898 290.913940,219.652115 
	C289.017761,218.136566 287.843170,217.197769 286.371826,216.021774 
	C284.165588,219.299088 281.971436,222.558426 279.324066,226.490997 
	C270.939392,213.405823 262.823456,200.740082 254.171051,187.237122 
	C246.362213,199.442596 238.911697,211.087997 231.012863,223.434128 
	C227.513245,218.084549 224.399948,213.325500 220.768127,207.773834 
	C218.371414,211.259399 216.402786,214.122375 213.700912,218.051727 
	C213.297119,215.349258 213.091476,213.972931 212.809967,212.189301 
z"/>
<path fill="#FAC544" opacity="1.000000" stroke="none" 
	d="
M234.994583,266.992371 
	C235.627594,267.148438 236.260605,267.304535 236.883194,267.458038 
	C236.876678,267.607391 236.911102,267.753540 236.862854,267.789886 
	C234.623184,269.476105 232.376312,271.152740 230.130280,272.830505 
	C232.323776,274.961243 234.167572,277.816803 236.780792,279.077637 
	C242.957047,282.057617 249.524826,284.217102 255.880600,286.838470 
	C258.360077,287.861084 260.695587,289.232849 263.096649,290.445587 
	C263.115234,290.982086 263.133789,291.518585 263.152344,292.055084 
	C260.823456,293.380829 258.640289,295.177094 256.140594,295.951477 
	C244.900543,299.433441 233.499390,302.403748 222.299438,306.003723 
	C215.449722,308.205444 208.026321,309.815704 203.724335,317.191925 
	C200.019318,314.638611 196.523315,311.742218 193.458740,308.447693 
	C195.854736,308.034058 197.819336,308.021301 199.783859,308.002350 
	C202.836426,307.972900 206.115891,308.560486 208.210480,305.038788 
	C209.460312,304.844391 210.393997,304.651672 211.327667,304.458984 
	C211.270081,303.984985 211.212494,303.511017 211.154892,303.037048 
	C207.089966,303.037048 203.018661,302.895905 198.961960,303.078644 
	C195.266602,303.245117 191.587097,303.763123 187.900604,304.126160 
	C185.560135,301.325714 183.219650,298.525238 181.306793,295.342255 
	C200.767853,294.949951 219.801361,294.962067 238.834595,294.893860 
	C240.582413,294.887604 242.328369,294.368347 244.452118,294.045410 
	C246.698196,293.302917 248.567322,292.602386 250.436447,291.901825 
	C250.009399,291.472290 249.582352,291.042755 248.786499,290.417236 
	C224.790192,290.242584 201.162689,290.263947 177.535187,290.285309 
	C176.047562,287.752197 174.559921,285.219116 173.514877,282.340515 
	C191.023102,281.996246 208.088867,282.021362 225.154190,281.947876 
	C226.367859,281.942657 227.578400,281.213257 228.642792,280.509857 
	C226.623627,279.111664 224.761795,277.100647 222.879028,277.080841 
	C205.530334,276.898529 188.178024,277.060699 170.826767,277.122650 
	C169.785706,274.086975 168.744644,271.051270 167.632156,267.632416 
	C167.560730,267.249237 167.826096,267.171204 168.377060,267.140839 
	C190.950211,267.071106 212.972397,267.031738 234.994583,266.992371 
z"/>
<path fill="#FCC545" opacity="1.000000" stroke="none" 
	d="
M335.902740,267.318665 
	C336.093384,267.288361 336.283997,267.258026 336.764069,267.208008 
	C336.124023,270.279358 335.194519,273.370453 333.621948,276.716583 
	C315.964752,276.971649 298.950653,276.971649 281.936554,276.971649 
	C281.914795,277.225128 281.893005,277.478607 281.871216,277.732056 
	C283.915100,278.733032 285.958954,279.734039 288.235229,281.099304 
	C290.264893,281.642456 292.060974,281.962280 293.859589,281.977386 
	C306.353363,282.082306 318.847687,282.123993 331.341797,282.185913 
	C330.103577,284.782562 328.865326,287.379211 326.887451,290.105621 
	C318.064819,290.235352 309.981812,290.235352 300.169586,290.235352 
	C302.408417,292.766022 303.703796,295.529175 305.095154,295.578400 
	C311.153046,295.792725 317.238861,295.217346 323.314575,294.928833 
	C320.800385,298.209869 318.286224,301.490906 315.222412,304.555542 
	C303.596985,303.107666 301.716858,303.536652 300.245880,308.171936 
	C304.185974,308.171936 307.946411,308.171936 311.706848,308.171936 
	C307.972046,311.488953 304.490479,315.166412 300.429626,318.019318 
	C296.547791,320.746460 292.063416,322.615906 287.500671,324.913208 
	C284.566956,323.362854 281.976471,321.761688 279.385986,320.160522 
	C281.489563,317.747040 283.464020,315.203186 285.732391,312.955994 
	C288.087616,310.622772 290.928284,308.767548 293.205292,306.369629 
	C300.438873,298.751892 299.700958,292.315155 290.357483,287.727997 
	C283.709717,284.464264 276.465729,282.323883 269.350098,280.128632 
	C261.577393,277.730621 253.628510,275.907898 245.803619,273.669434 
	C244.707703,273.355896 243.880554,272.102936 242.928986,271.284851 
	C243.756287,270.618317 244.583572,269.951752 245.978622,269.468597 
	C247.685867,269.306671 248.825363,268.961334 249.964844,268.615997 
	C249.964844,268.615997 250.246765,268.499451 250.794724,268.668945 
	C252.867920,268.489136 254.393143,268.139893 255.918365,267.790649 
	C255.918365,267.790619 255.857208,267.878418 256.309021,267.913452 
	C281.867615,267.966644 306.974457,267.994873 332.081238,267.973785 
	C333.355255,267.972717 334.628906,267.546783 335.902740,267.318665 
z"/>
<path fill="#6E99B1" opacity="1.000000" stroke="none" 
	d="
M170.868195,277.438660 
	C188.178024,277.060699 205.530334,276.898529 222.879028,277.080841 
	C224.761795,277.100647 226.623627,279.111664 228.190430,280.545532 
	C209.497726,280.949463 191.109787,281.006958 172.721848,281.064423 
	C172.117783,279.961151 171.513718,278.857910 170.868195,277.438660 
z"/>
<path fill="#6398BB" opacity="1.000000" stroke="none" 
	d="
M249.155319,290.613220 
	C249.582352,291.042755 250.009399,291.472290 250.436447,291.901825 
	C248.567322,292.602386 246.698196,293.302917 243.977997,294.012665 
	C222.055069,294.073517 200.983200,294.125183 179.911331,294.176819 
	C179.338501,293.376770 178.765686,292.576721 178.575409,291.416626 
	C193.404572,291.038300 207.851425,291.061737 222.297760,290.986328 
	C231.250687,290.939606 240.202820,290.742706 249.155319,290.613220 
z"/>
<path fill="#6E99B1" opacity="1.000000" stroke="none" 
	d="
M288.002838,280.735046 
	C285.958954,279.734039 283.915100,278.733032 281.871216,277.732056 
	C281.893005,277.478607 281.914795,277.225128 281.936554,276.971649 
	C298.950653,276.971649 315.964752,276.971649 333.433105,277.035767 
	C333.303894,278.336426 332.720428,279.572998 331.349792,280.887146 
	C316.376007,280.888184 302.189423,280.811615 288.002838,280.735046 
z"/>
<path fill="#87A19E" opacity="1.000000" stroke="none" 
	d="
M323.612854,294.877716 
	C317.238861,295.217346 311.153046,295.792725 305.095154,295.578400 
	C303.703796,295.529175 302.408417,292.766022 300.169586,290.235352 
	C309.981812,290.235352 318.064819,290.235352 326.614746,290.340210 
	C326.024841,291.905609 324.968018,293.366119 323.612854,294.877716 
z"/>
<path fill="#A4A974" opacity="1.000000" stroke="none" 
	d="
M248.786499,290.417236 
	C240.202820,290.742706 231.250687,290.939606 222.297760,290.986328 
	C207.851425,291.061737 193.404572,291.038300 178.496521,291.121094 
	C177.938583,291.042664 177.842056,290.899719 177.640350,290.521057 
	C201.162689,290.263947 224.790192,290.242584 248.786499,290.417236 
z"/>
<path fill="#A4A974" opacity="1.000000" stroke="none" 
	d="
M180.014526,294.354736 
	C200.983200,294.125183 222.055069,294.073517 243.601059,294.054565 
	C242.328369,294.368347 240.582413,294.887604 238.834595,294.893860 
	C219.801361,294.962067 200.767853,294.949951 181.245728,294.995209 
	C180.487396,294.937225 180.274292,294.771210 180.014526,294.354736 
z"/>
<path fill="#F1BE0F" opacity="1.000000" stroke="none" 
	d="
M172.751709,281.310242 
	C191.109787,281.006958 209.497726,280.949463 228.338043,280.856293 
	C227.578400,281.213257 226.367859,281.942657 225.154190,281.947876 
	C208.088867,282.021362 191.023102,281.996246 173.490509,281.991638 
	C173.023560,281.988251 172.781586,281.556091 172.751709,281.310242 
z"/>
<path fill="#6398BB" opacity="1.000000" stroke="none" 
	d="
M312.068909,308.100769 
	C307.946411,308.171936 304.185974,308.171936 300.245880,308.171936 
	C301.716858,303.536652 303.596985,303.107666 314.923584,304.701263 
	C314.259949,306.052124 313.345459,307.040863 312.068909,308.100769 
z"/>
<path fill="#6398BB" opacity="1.000000" stroke="none" 
	d="
M207.894348,305.040497 
	C206.115891,308.560486 202.836426,307.972900 199.783859,308.002350 
	C197.819336,308.021301 195.854736,308.034058 193.430420,308.106567 
	C191.703461,307.365814 190.436279,306.568085 189.498459,305.387268 
	C195.849991,305.016266 201.872162,305.028381 207.894348,305.040497 
z"/>
<path fill="#F1BE0F" opacity="1.000000" stroke="none" 
	d="
M208.210480,305.038788 
	C201.872162,305.028381 195.849991,305.016266 189.355316,305.086914 
	C188.613373,304.978821 188.343948,304.787964 187.987564,304.361633 
	C191.587097,303.763123 195.266602,303.245117 198.961960,303.078644 
	C203.018661,302.895905 207.089966,303.037048 211.154892,303.037048 
	C211.212494,303.511017 211.270081,303.984985 211.327667,304.458984 
	C210.393997,304.651672 209.460312,304.844391 208.210480,305.038788 
z"/>
<path fill="#F1BE0F" opacity="1.000000" stroke="none" 
	d="
M288.235229,281.099335 
	C302.189423,280.811615 316.376007,280.888184 331.074921,280.999512 
	C331.593964,281.236298 331.600677,281.438385 331.474609,281.913208 
	C318.847687,282.123993 306.353363,282.082306 293.859589,281.977386 
	C292.060974,281.962280 290.264893,281.642456 288.235229,281.099335 
z"/>
<path fill="#6498BA" opacity="1.000000" stroke="none" 
	d="
M142.810791,225.527054 
	C140.306778,226.088379 137.891678,226.237488 135.147812,226.406891 
	C135.147812,224.390869 134.697342,222.930801 135.234726,222.246796 
	C136.680099,220.406998 138.489395,217.618362 140.259750,217.538239 
	C143.462341,217.393326 143.442993,220.568527 143.147919,223.153030 
	C143.073151,223.807861 142.982864,224.460953 142.810791,225.527054 
z"/>
<path fill="#76A6C1" opacity="1.000000" stroke="none" 
	d="
M288.347015,139.397247 
	C289.743622,137.567719 290.974823,136.060577 292.205994,134.553421 
	C292.673370,134.763016 293.140747,134.972595 293.608124,135.182175 
	C293.767883,137.623306 293.927643,140.064438 294.202728,144.267410 
	C291.400208,142.150681 289.790894,140.935165 288.347015,139.397247 
z"/>
<path fill="#76A6C1" opacity="1.000000" stroke="none" 
	d="
M327.873108,160.757782 
	C324.153870,165.861465 323.893494,160.032593 321.789001,158.829193 
	C323.899719,157.801727 326.010437,156.774277 329.244934,155.199783 
	C328.631378,157.716248 328.305176,159.054245 327.873108,160.757782 
z"/>
<path fill="#7AA8C1" opacity="1.000000" stroke="none" 
	d="
M223.201355,138.678925 
	C221.305176,139.504547 219.639694,140.087952 217.117676,140.971390 
	C217.314163,137.909409 217.467651,135.517563 217.621140,133.125702 
	C218.136383,132.940491 218.651627,132.755264 219.166870,132.570053 
	C220.588593,134.525589 222.010315,136.481140 223.201355,138.678925 
z"/>
<path fill="#76A6C1" opacity="1.000000" stroke="none" 
	d="
M144.389832,200.237457 
	C146.851257,200.156143 148.973297,200.156143 151.884399,200.156143 
	C151.053772,202.353470 150.362946,204.180984 149.151306,207.386276 
	C147.017838,204.430252 145.534149,202.374512 144.389832,200.237457 
z"/>
<path fill="#6398BB" opacity="1.000000" stroke="none" 
	d="
M284.486572,354.142761 
	C283.897095,354.883118 283.033936,355.418671 282.170746,355.954254 
	C281.987366,355.493042 281.803955,355.031799 281.620575,354.570587 
	C282.484680,354.359711 283.348785,354.148865 284.486572,354.142761 
z"/>
<path fill="#6498BA" opacity="1.000000" stroke="none" 
	d="
M181.238297,330.393463 
	C180.374924,328.902100 179.653046,327.624939 179.390472,326.259460 
	C179.331116,325.950836 181.143005,324.753998 181.617676,324.977325 
	C182.721619,325.496735 183.535492,326.632629 184.466919,327.518677 
	C183.493286,328.537689 182.519653,329.556702 181.238297,330.393463 
z"/>
<path fill="#6398BB" opacity="1.000000" stroke="none" 
	d="
M166.169189,319.134277 
	C165.037582,318.877930 163.847595,318.248505 162.657623,317.619110 
	C163.008301,317.123932 163.358978,316.628784 163.709656,316.133636 
	C164.510056,317.009491 165.310440,317.885345 166.169189,319.134277 
z"/>
<path fill="#6398BB" opacity="1.000000" stroke="none" 
	d="
M349.997009,295.990906 
	C350.117401,295.969208 350.287842,296.000427 350.304504,296.088928 
	C350.150757,296.146210 350.047089,296.043823 349.997009,295.990906 
z"/>
<path fill="#6398BB" opacity="1.000000" stroke="none" 
	d="
M321.047638,336.039734 
	C320.149414,337.190613 319.155487,338.241943 318.161560,339.293243 
	C317.780121,338.864258 317.398682,338.435272 317.017242,338.006287 
	C318.047058,337.295288 319.076874,336.584259 320.438690,335.802460 
	C320.770691,335.731659 320.951935,335.940155 321.047638,336.039734 
z"/>
<path fill="#FBF8F2" opacity="1.000000" stroke="none" 
	d="
M240.206299,242.209229 
	C244.638962,239.368958 249.071625,236.528687 253.836716,233.475433 
	C256.625244,237.947174 260.387665,237.432098 265.566467,234.027390 
	C263.727325,238.788559 262.776733,242.276520 261.089447,245.361572 
	C258.902954,249.359436 259.016510,252.720779 261.935425,256.261322 
	C263.457886,258.108002 264.429962,260.408386 266.054199,263.196625 
	C259.381714,263.196625 253.588226,263.211212 247.794907,263.186523 
	C246.319687,263.180206 244.845016,263.049255 242.443100,262.929260 
	C243.677048,258.686981 244.792496,254.852066 245.907944,251.017136 
	C245.637100,250.610992 245.366257,250.204849 245.095398,249.798706 
	C238.733658,261.935791 229.098557,265.939636 215.884796,262.278717 
	C228.341202,242.641434 240.770020,223.047638 253.281509,203.323502 
	C256.613007,208.490814 256.732208,212.958664 253.967575,217.589035 
	C249.275803,225.447006 244.633698,233.334641 239.758301,241.649994 
	C239.586731,242.301758 239.627563,242.513351 239.668411,242.724930 
	C239.847702,242.553040 240.027008,242.381134 240.206299,242.209229 
z"/>
<path fill="#F8F4EE" opacity="1.000000" stroke="none" 
	d="
M220.693878,247.757446 
	C219.201355,250.180725 217.824112,252.265747 216.500183,254.384048 
	C210.449661,264.064880 208.155228,265.000244 195.289017,262.405457 
	C203.570465,249.308319 211.674545,236.491669 219.778625,223.675003 
	C220.240387,223.740112 220.702148,223.805222 221.163910,223.870331 
	C220.844666,228.120178 221.323273,232.643143 219.987518,236.544998 
	C218.580200,240.655899 215.439667,244.173431 212.912170,248.178802 
	C215.850372,247.902740 218.342041,247.668640 220.693878,247.757446 
z"/>
<path fill="#C5B639" opacity="1.000000" stroke="none" 
	d="
M335.935303,267.218658 
	C334.628906,267.546783 333.355255,267.972717 332.081238,267.973785 
	C306.974457,267.994873 281.867615,267.966644 256.277802,267.869965 
	C255.794815,267.791473 255.888748,267.429993 256.418640,267.264648 
	C283.302094,267.036987 309.655640,266.974731 336.009216,266.912445 
	C336.009216,266.912445 335.967896,267.118652 335.935303,267.218658 
z"/>
<path fill="#6398BB" opacity="1.000000" stroke="none" 
	d="
M335.696167,266.639801 
	C309.655640,266.974731 283.302094,267.036987 256.480713,267.088501 
	C257.222534,266.718506 258.431427,266.048859 259.641937,266.045929 
	C284.242340,265.986694 308.842896,266.000977 333.443451,266.020691 
	C334.090088,266.021210 334.736542,266.246613 335.696167,266.639801 
z"/>
<path fill="#F1EFE7" opacity="1.000000" stroke="none" 
	d="
M289.800659,243.242783 
	C291.019470,247.400848 292.142395,251.170807 293.265289,254.940781 
	C292.994354,255.072571 292.723389,255.204361 292.452454,255.336151 
	C289.500458,250.783295 286.155273,246.419952 283.817993,241.570801 
	C283.040894,239.958618 284.850342,237.099716 285.477295,234.810776 
	C285.941193,234.884903 286.405121,234.959030 286.869019,235.033157 
	C287.814270,237.640335 288.759491,240.247513 289.800659,243.242783 
z"/>
<path fill="#6398BB" opacity="1.000000" stroke="none" 
	d="
M234.698212,266.699036 
	C212.972397,267.031738 190.950211,267.071106 168.465103,267.034210 
	C169.234955,266.638611 170.466919,266.044525 171.700592,266.041016 
	C191.792679,265.983521 211.884964,265.996094 231.977203,266.018311 
	C232.785553,266.019226 233.593643,266.270905 234.698212,266.699036 
z"/>
<path fill="#C5B639" opacity="1.000000" stroke="none" 
	d="
M255.516815,267.757080 
	C254.393143,268.139893 252.867920,268.489136 250.911713,268.766815 
	C252.025574,268.371307 253.570419,268.047424 255.516815,267.757080 
z"/>
<path fill="#C5B639" opacity="1.000000" stroke="none" 
	d="
M249.562469,268.624329 
	C248.825363,268.961334 247.685867,269.306671 246.289032,269.444336 
	C247.074478,269.035339 248.117294,268.834015 249.562469,268.624329 
z"/>
<path fill="#6498BA" opacity="1.000000" stroke="none" 
	d="
M240.131744,242.135162 
	C240.027008,242.381134 239.847702,242.553040 239.668411,242.724930 
	C239.627563,242.513351 239.586731,242.301758 239.725342,242.003235 
	C239.904800,241.916290 240.057175,242.061096 240.131744,242.135162 
z"/>
</svg>